:SAMPLES-PER-SECOND 30
:FULLY-SPECIFIED
:DEGREES
314
root  52.8759 36.3206 2.69099 -137.188 85.7537 -159.59
RightUpLeg  -51.7717 -4.45889 -1.56377
RightLeg  31.8281 4.5191 2.77899
RightFoot  -0.389554 -0.297804 3.08365
RightToes  -1.33073e-015 0 -3.6325e-017
Spine  62.799 -3.29764 6.22314
Spine1  5.26508 0.76931 -1.53968
HEad  -57.2187 15.2921 20.0964
LeftShoulder1  1.33099 -9.4305 -2.10337
LeftArm  -68.9688 -65.0629 15.9135
LeftForeArm  -23.8663 -12.2978 3.36195
LeftHand  -0.0303082 5.5967 -0.224673
RightShoulder  0.471168 2.62247 -0.8603
RightArm  -102.476 71.5038 -65.4077
RightForeArm  -35.7526 -5.17876 1.60118
RightHand  -0.206123 10.6665 -1.88988
LeftUpLeg  -53.6953 9.20658 0.151113
LeftLeg  33.3011 -3.2818 -1.96318
LeftFoot  0.236969 -0.313221 3.0679
LeftToes  -1.03319e-009 7.52634e-011 -3.26162e-012
315
root  53.1116 36.3316 2.82435 -142.186 85.618 -165.197
RightUpLeg  -52.6973 -4.60776 -1.58275
RightLeg  33.0657 4.25545 2.73231
RightFoot  -0.405958 -0.0815419 0.821108
RightToes  -1.33073e-015 0 -3.6325e-017
Spine  64.2613 -3.27483 5.99023
Spine1  3.54142 0.589313 -1.21893
HEad  -57.5015 14.9709 20.3197
LeftShoulder1  1.25001 -9.63381 -1.2205
LeftArm  -69.1852 -64.5253 16.6777
LeftForeArm  -25.1127 -11.8148 3.74169
LeftHand  -0.0282435 5.53482 -0.572828
RightShoulder  0.422906 2.72565 -1.90086
RightArm  -102.154 70.85 -65.639
RightForeArm  -35.4361 -5.18907 1.59455
RightHand  -0.0542081 10.0787 -0.823281
LeftUpLeg  -53.9086 8.59166 0.268061
LeftLeg  33.1804 -3.01614 -1.76642
LeftFoot  0.533324 -0.389903 3.71415
LeftToes  -1.03319e-009 7.52634e-011 -3.26162e-012
316
root  53.3343 36.2806 2.94355 -144.5 85.3455 -168.046
RightUpLeg  -53.3148 -4.35696 -1.74663
RightLeg  33.9732 3.737 2.45547
RightFoot  -1.17337 -0.13141 1.4014
RightToes  -1.33073e-015 0 -3.6325e-017
Spine  65.0948 -3.69102 6.03743
Spine1  2.8736 0.401461 -1.7758
HEad  -58.2741 14.3942 20.3606
LeftShoulder1  1.16862 -9.78555 -0.401174
LeftArm  -70.9728 -63.6857 18.6935
LeftForeArm  -25.1097 -11.8441 4.05892
LeftHand  -0.0357297 6.03763 -0.965091
RightShoulder  0.355932 2.63025 -3.03396
RightArm  -102.473 70.4133 -65.3563
RightForeArm  -36.1266 -5.08923 1.1645
RightHand  -0.0319977 10.5979 -0.647587
LeftUpLeg  -54.4656 8.28908 0.464506
LeftLeg  33.8171 -2.97228 -1.78247
LeftFoot  -0.18875 -0.278545 2.86443
LeftToes  -1.03319e-009 7.52634e-011 -3.26162e-012
317
root  53.5268 36.2003 3.06073 -146.968 85.1042 -171.039
RightUpLeg  -54.1323 -4.06976 -2.00849
RightLeg  35.1355 3.18714 2.15292
RightFoot  -1.96598 -0.188881 2.12969
RightToes  -1.33073e-015 0 -3.6325e-017
Spine  65.9724 -3.84558 6.03875
Spine1  1.92285 0.355134 -1.95479
HEad  -58.8544 13.7247 20.0292
LeftShoulder1  1.06652 -9.95693 0.590701
LeftArm  -71.4922 -63.0183 20.1028
LeftForeArm  -26.8229 -11.5558 4.2454
LeftHand  -0.0151767 4.92692 -0.267047
RightShoulder  0.29914 2.65864 -4.11479
RightArm  -101.545 69.905 -64.3282
RightForeArm  -37.1497 -5.00509 0.897189
RightHand  -0.101278 10.3054 -1.1588
LeftUpLeg  -55.1462 8.06514 0.495422
LeftLeg  34.5481 -2.78071 -1.69718
LeftFoot  -0.687695 -0.218292 2.38826
LeftToes  -1.03319e-009 7.52634e-011 -3.26162e-012
318
root  53.6747 36.1111 3.15455 -148.307 84.9326 -172.637
RightUpLeg  -55.1005 -4.01766 -2.00742
RightLeg  36.8251 2.88758 2.05772
RightFoot  -2.10055 -0.118067 1.28434
RightToes  -1.33073e-015 0 -3.6325e-017
Spine  67.5223 -4.008 6.30067
Spine1  -0.270234 0.51922 -2.28637
HEad  -58.5042 12.7018 20.3689
LeftShoulder1  0.996343 -10.1094 1.28109
LeftArm  -71.2594 -63.0108 20.0545
LeftForeArm  -27.7259 -11.4145 4.24179
LeftHand  -0.0239348 5.50642 -0.362673
RightShoulder  0.2568 3.03507 -5.18696
RightArm  -97.5075 69.7197 -59.3061
RightForeArm  -37.1775 -4.87128 0.13675
RightHand  -0.0858994 9.74582 -1.06199
LeftUpLeg  -55.651 7.92522 0.624878
LeftLeg  35.3476 -2.77029 -1.74629
LeftFoot  -0.999562 -0.207649 2.36172
LeftToes  -1.03319e-009 7.52634e-011 -3.26162e-012
